<svg version="1.1" id="Layer_1" xmlns="http://www.w3.org/2000/svg" xmlns:xlink="http://www.w3.org/1999/xlink" x="0px" y="0px"
	 width="100%" viewBox="0 0 1726 495"  xml:space="preserve">
<path fill="none" opacity="1.000000" stroke="none" 
	d="
M232.000000,496.000000 
	C155.069397,496.000000 78.138786,496.000000 1.000000,496.000000 
	C1.000000,419.305420 1.000000,342.610657 1.396979,265.609497 
	C8.070297,340.638794 41.689892,400.911316 101.215675,447.273651 
	C141.308899,269.963104 243.194931,140.835571 401.114502,54.342232 
	C400.949615,54.081711 400.777985,53.553009 400.414703,53.273136 
	C366.566162,27.196453 328.622437,10.584468 286.347931,4.033447 
	C279.245789,2.932875 272.116669,2.006738 265.000000,1.000001 
	C752.274048,1.000000 1239.548096,1.000000 1726.911133,1.000000 
	C1726.911133,165.920609 1726.911133,330.841278 1726.911133,496.000000 
	C1239.305298,496.000000 751.610596,496.000000 263.621918,495.601074 
	C293.526428,493.488098 322.429840,486.413055 349.993866,473.998688 
	C377.408447,461.651581 401.763428,444.905396 423.718140,422.844543 
	C391.097137,422.844543 359.772461,422.821350 328.447906,422.882172 
	C325.476318,422.887939 323.282074,422.422485 321.322662,419.680084 
	C295.197083,383.114624 268.931061,346.649506 242.692322,310.164917 
	C235.958145,300.801117 229.197418,291.456451 222.257309,281.837463 
	C221.421753,282.832275 220.964783,283.294678 220.600800,283.821320 
	C182.336975,339.184326 153.040024,398.941437 132.569534,463.055054 
	C131.530457,466.309479 132.936874,467.028900 135.211182,468.206787 
	C159.795151,480.938934 185.773468,489.251160 213.189117,493.106415 
	C219.470825,493.989716 225.730301,495.031250 232.000000,496.000000 
M353.568085,141.054459 
	C325.573364,163.912338 299.364075,188.653259 274.735657,215.195663 
	C324.566071,284.477631 374.149841,353.416687 423.784607,422.426636 
	C520.953552,326.472931 515.261047,171.659912 433.298950,85.044106 
	C405.598724,101.691650 379.214874,120.231354 353.568085,141.054459 
M838.158508,132.499924 
	C838.158508,147.221344 838.158508,161.942780 838.158508,176.664200 
	C837.727051,176.903961 837.295593,177.143723 836.864075,177.383484 
	C836.256531,176.428818 835.778503,175.354355 835.022644,174.536804 
	C808.800171,146.176422 782.555054,117.836952 756.305481,89.501640 
	C735.259827,66.783768 714.180664,44.096832 693.176636,21.340542 
	C689.757019,17.635691 685.907166,14.949564 680.736023,14.916707 
	C670.906006,14.854249 661.066101,14.695343 651.247131,15.047179 
	C643.197876,15.335603 639.499817,19.426773 639.496155,27.491354 
	C639.465027,96.655334 639.476257,165.819351 639.521973,234.983322 
	C639.526978,242.654541 642.755188,246.593109 650.475464,247.002045 
	C661.105713,247.565140 671.799072,247.735611 682.429810,247.266586 
	C693.100159,246.795792 695.998962,243.147537 696.000122,232.392471 
	C696.005310,185.394165 696.003845,138.395874 696.004761,91.397568 
	C696.004822,89.675842 696.004761,87.954124 696.004761,86.232399 
	C696.425903,86.047318 696.846985,85.862228 697.268127,85.677139 
	C697.686829,86.381653 697.995178,87.188591 698.540161,87.776001 
	C727.643005,119.146477 756.775085,150.489777 785.883118,181.855438 
	C803.661316,201.012497 821.414185,220.193146 839.159058,239.381119 
	C843.337402,243.899414 847.828125,247.577209 854.524475,247.443970 
	C863.516846,247.265045 872.535583,247.739380 881.504822,247.242798 
	C891.692566,246.678772 894.835571,242.893799 894.836487,232.609329 
	C894.842773,164.945145 894.838318,97.280968 894.820801,29.616789 
	C894.818054,19.196100 890.845520,15.039017 880.420349,14.865216 
	C870.923523,14.706892 861.420166,14.732885 851.922791,14.879633 
	C841.909119,15.034357 838.161865,18.983141 838.160400,29.003611 
	C838.155396,63.169044 838.158508,97.334473 838.158508,132.499924 
M1026.500366,114.484619 
	C1013.257263,114.484619 1000.014099,114.484619 986.867615,114.484619 
	C986.867615,92.086685 986.867615,70.519058 986.867615,48.579185 
	C988.336487,48.579185 989.469238,48.579540 990.601990,48.579128 
	C1035.421265,48.562809 1080.240479,48.558289 1125.059814,48.506954 
	C1128.550781,48.502956 1132.063843,48.359344 1135.526733,47.946091 
	C1140.298462,47.376667 1143.638062,44.817074 1144.302368,39.846668 
	C1144.762817,36.401699 1144.808105,32.885120 1144.822998,29.399618 
	C1144.871948,17.914864 1141.900757,14.882450 1130.401245,14.862784 
	C1099.577393,14.810070 1068.753540,14.827521 1037.929688,14.821184 
	C1007.105835,14.814846 976.281921,14.802283 945.458069,14.815492 
	C933.461487,14.820633 929.996216,18.302332 929.996094,30.219666 
	C929.995789,64.542526 929.994934,98.865387 929.996277,133.188248 
	C929.997559,167.011200 929.994141,200.834167 930.009521,234.657120 
	C930.013062,242.464783 933.055176,246.014160 940.665833,247.056641 
	C942.801575,247.349167 944.974548,247.496246 947.130493,247.497238 
	C998.948059,247.520844 1050.765625,247.514099 1102.583130,247.516647 
	C1111.580322,247.517090 1120.579346,247.658539 1129.574097,247.513885 
	C1141.877808,247.316040 1144.824829,244.227768 1144.843018,232.021500 
	C1144.865845,216.700577 1142.191895,214.003799 1126.836060,213.999664 
	C1081.849731,213.987534 1036.863525,213.992874 991.877258,213.991379 
	C990.136719,213.991333 988.396179,213.991379 986.635864,213.991379 
	C986.635864,191.611298 986.635864,169.990204 986.635864,147.845444 
	C988.430603,147.845444 990.052490,147.845520 991.674438,147.845428 
	C1023.664612,147.843796 1055.656006,148.004929 1087.644531,147.769073 
	C1102.726440,147.657867 1106.837158,145.508652 1106.008911,129.684601 
	C1105.974121,129.019913 1106.004028,128.351898 1106.001465,127.685440 
	C1105.967896,118.649956 1103.344482,115.146439 1094.455933,114.962120 
	C1072.143799,114.499405 1049.819702,114.606239 1026.500366,114.484619 
M1357.739624,48.241272 
	C1342.454712,63.974091 1327.169800,79.706909 1311.807129,95.519722 
	C1310.849609,94.636223 1310.214600,94.104645 1309.641113,93.513351 
	C1285.767212,68.896004 1261.863647,44.307213 1238.071167,19.611326 
	C1234.834717,16.251940 1231.320068,14.712718 1226.631470,14.779289 
	C1212.637817,14.977981 1198.637207,14.737554 1184.645996,15.009065 
	C1182.363770,15.053351 1178.794922,16.335796 1178.202393,17.930698 
	C1177.538818,19.716631 1178.956421,23.108629 1180.545532,24.773825 
	C1205.141846,50.547905 1229.913330,76.154755 1254.644165,101.800446 
	C1263.157349,110.628731 1271.670166,119.457420 1281.534546,129.687286 
	C1276.110352,134.381378 1270.715698,138.407303 1266.076294,143.169205 
	C1235.874146,174.169479 1205.796875,205.291962 1175.842163,236.531219 
	C1174.052979,238.397202 1172.250122,242.239822 1173.034546,244.034760 
	C1173.850098,245.900665 1177.780518,247.282059 1180.384521,247.342712 
	C1194.040894,247.660736 1207.708984,247.416656 1221.371704,247.534500 
	C1226.176270,247.575943 1229.938110,245.973190 1233.280396,242.472015 
	C1250.870483,224.046112 1268.419556,205.575409 1286.331665,187.464935 
	C1294.828125,178.874374 1304.101074,171.051682 1313.022217,162.881134 
	C1313.698975,162.535446 1314.821045,164.212952 1316.203979,165.637238 
	C1341.136475,191.315475 1366.149414,216.915833 1390.998657,242.674133 
	C1394.290894,246.086670 1397.894653,247.606049 1402.471313,247.529755 
	C1407.468750,247.446442 1412.468750,247.519043 1417.467651,247.511032 
	C1426.465454,247.496597 1435.471069,247.666534 1444.455688,247.312500 
	C1446.620361,247.227203 1450.055786,245.792648 1450.511597,244.264206 
	C1451.110107,242.257767 1449.368164,239.532288 1448.550293,237.144287 
	C1448.406616,236.724915 1447.845581,236.456299 1447.498291,236.097778 
	C1419.590210,207.280197 1391.678833,178.465744 1363.781738,149.637543 
	C1356.998291,142.627533 1350.261963,135.571655 1343.389648,128.417740 
	C1344.951416,126.672394 1346.121460,125.275452 1347.383667,123.967354 
	C1379.287598,90.901566 1411.232910,57.875721 1443.018921,24.697077 
	C1444.610107,23.036179 1446.068237,19.534557 1445.345337,17.855881 
	C1444.634033,16.204407 1441.079224,14.994452 1438.747559,14.952139 
	C1424.755371,14.698236 1410.754639,14.953355 1396.760010,14.778811 
	C1392.043579,14.719987 1388.519043,16.361990 1385.324463,19.732471 
	C1376.391113,29.157761 1367.273438,38.408314 1357.739624,48.241272 
M1568.838379,179.499924 
	C1568.857666,197.990311 1568.801147,216.481247 1568.934570,234.970810 
	C1568.985718,242.053833 1572.415405,246.540207 1579.070557,246.814438 
	C1591.193115,247.313995 1603.363525,247.290909 1615.488770,246.826752 
	C1621.589478,246.593185 1624.547852,242.841995 1625.174072,236.762268 
	C1625.395142,234.614807 1625.487549,232.444931 1625.488159,230.285248 
	C1625.504395,171.648193 1625.501221,113.011139 1625.501099,54.374084 
	C1625.501099,52.598671 1625.501099,50.823257 1625.501099,48.548054 
	C1627.662598,48.548054 1629.282593,48.549301 1630.902710,48.547867 
	C1654.057495,48.527374 1677.212402,48.524982 1700.367065,48.461842 
	C1703.187744,48.454151 1706.035767,48.310253 1708.821899,47.897465 
	C1715.070679,46.971680 1717.811035,43.883717 1718.076416,37.534012 
	C1718.236206,33.709141 1718.251953,29.868692 1718.114624,26.043064 
	C1717.877563,19.437006 1714.721924,15.964033 1708.192139,15.084834 
	C1706.058105,14.797513 1703.871460,14.835225 1701.708862,14.834865 
	C1632.077393,14.823265 1562.445801,14.822715 1492.814331,14.836124 
	C1490.485352,14.836573 1488.130127,14.806945 1485.832764,15.123532 
	C1480.269409,15.890226 1477.578125,18.602501 1476.817749,24.135454 
	C1476.524780,26.266706 1476.492920,28.446693 1476.498657,30.604065 
	C1476.540161,46.366859 1478.541138,48.443588 1494.261353,48.492012 
	C1516.583252,48.560764 1538.905396,48.507805 1561.227417,48.506878 
	C1563.657227,48.506779 1566.087158,48.506866 1568.838379,48.506866 
	C1568.838379,92.257179 1568.838379,135.378540 1568.838379,179.499924 
M1133.633545,444.774933 
	C1119.805054,404.748505 1105.956299,364.729065 1092.161133,324.691254 
	C1088.232056,313.288544 1088.303223,313.264038 1075.962158,313.462433 
	C1068.400513,313.583984 1067.301880,315.080963 1069.814087,322.120911 
	C1076.847046,341.829254 1083.914062,361.525513 1090.982300,381.221313 
	C1101.978516,411.862762 1112.955688,442.511200 1124.059204,473.113708 
	C1124.808105,475.177765 1126.135864,477.579895 1127.904053,478.628265 
	C1134.511841,482.546448 1144.795166,478.864349 1147.794678,471.894257 
	C1164.942017,432.046753 1182.086670,392.198151 1199.249634,352.357361 
	C1199.782104,351.121124 1200.500977,349.965118 1201.417480,348.234283 
	C1219.494141,390.210083 1237.443481,431.329926 1254.811768,472.693695 
	C1258.282959,480.960754 1264.368286,479.247314 1270.463257,479.547516 
	C1275.863159,479.813477 1277.449585,476.087952 1278.913696,472.000977 
	C1289.834595,441.515778 1300.788452,411.042389 1311.730957,380.564911 
	C1318.798340,360.881012 1325.875732,341.200806 1332.922607,321.509583 
	C1335.089233,315.455475 1333.842285,313.657623 1327.337158,313.485657 
	C1324.679199,313.415375 1322.014893,313.611908 1319.353027,313.637695 
	C1315.310181,313.676880 1313.220215,315.684906 1311.902466,319.561920 
	C1301.000610,351.636902 1289.918823,383.650696 1278.884399,415.680603 
	C1274.621094,428.055786 1270.339478,440.424774 1265.796509,453.577576 
	C1264.967773,451.799713 1264.483154,450.827454 1264.054810,449.830994 
	C1247.315430,410.899353 1230.522705,371.990387 1213.916382,333.002106 
	C1211.720459,327.846313 1208.652588,325.158783 1202.930786,325.968414 
	C1201.624268,326.153290 1200.255371,326.112976 1198.937866,325.969177 
	C1193.644897,325.391602 1190.805542,327.875427 1188.754272,332.699921 
	C1174.192627,366.947998 1159.423950,401.108093 1144.701172,435.287537 
	C1142.173462,441.155731 1139.549805,446.982544 1136.634888,453.588989 
	C1135.494507,450.230591 1134.693481,447.871368 1133.633545,444.774933 
M1652.739868,415.743958 
	C1663.668701,433.230499 1675.082397,450.439636 1685.317017,468.323395 
	C1690.258179,476.957550 1696.073975,481.359100 1705.945068,479.509705 
	C1707.935181,479.136841 1710.418823,478.737915 1711.539429,477.399902 
	C1712.192627,476.619965 1710.926025,473.746277 1709.952637,472.166229 
	C1702.013672,459.280334 1693.935425,446.480377 1685.909180,433.648285 
	C1680.846069,425.553619 1675.799316,417.448761 1670.869507,409.547577 
	C1678.951904,406.899872 1686.754639,405.030273 1693.971558,401.837036 
	C1709.058472,395.161774 1718.449097,383.682892 1719.947021,366.836700 
	C1721.564941,348.642792 1715.085449,334.222260 1699.022583,324.731506 
	C1685.431274,316.701080 1670.388428,314.098450 1654.938599,313.892761 
	C1626.784668,313.517975 1598.624756,313.565125 1570.467407,313.466980 
	C1565.303955,313.448975 1560.125610,313.357819 1554.979858,313.693024 
	C1548.660400,314.104645 1547.160156,315.882385 1547.152832,322.141663 
	C1547.131592,340.139496 1547.144653,358.137390 1547.144653,376.135254 
	C1547.144653,407.798157 1547.138794,439.461029 1547.150757,471.123932 
	C1547.153076,477.152679 1549.144165,479.253448 1555.037842,479.518250 
	C1556.534668,479.585510 1558.040283,479.590851 1559.536255,479.513855 
	C1565.897461,479.186462 1567.828003,477.201416 1567.835449,470.891846 
	C1567.856689,452.893982 1567.845825,434.896149 1567.847534,416.898285 
	C1567.847656,414.796783 1567.847534,412.695251 1567.847534,410.200714 
	C1570.078735,410.200714 1571.711670,410.200684 1573.344482,410.200684 
	C1596.841675,410.200684 1620.340088,410.319641 1643.835083,410.091675 
	C1648.094360,410.050385 1650.811646,411.210632 1652.739868,415.743958 
M850.374695,345.883636 
	C830.722900,373.415497 828.710999,402.982452 841.981079,433.335480 
	C852.066711,456.404663 871.842590,468.847412 895.127319,476.062561 
	C920.864319,484.037598 947.215698,484.682770 973.740051,481.500946 
	C992.605835,479.237762 1010.462585,473.830475 1026.468384,463.195221 
	C1063.213867,438.779449 1066.269653,392.672516 1053.589111,362.579712 
	C1043.324951,338.220978 1023.515564,324.584442 999.105103,317.150848 
	C969.185791,308.039734 938.735840,307.750366 908.221252,313.750366 
	C885.815918,318.155823 865.816956,327.289215 850.374695,345.883636 
M1362.817383,342.499908 
	C1362.817383,384.653198 1362.817383,426.806488 1362.817261,468.959778 
	C1362.817139,478.208771 1364.137085,479.530548 1373.493042,479.532166 
	C1419.811768,479.540161 1466.130371,479.543091 1512.449097,479.529144 
	C1513.938599,479.528717 1515.431274,479.360199 1516.916870,479.211914 
	C1520.516846,478.852509 1522.123535,476.794678 1522.203613,473.224060 
	C1522.283325,469.671936 1521.244873,466.874359 1517.477173,466.076843 
	C1515.221069,465.599274 1512.854858,465.478516 1510.537964,465.476532 
	C1470.217407,465.442291 1429.896729,465.451355 1389.576172,465.450989 
	C1387.617188,465.450989 1385.658203,465.450958 1383.587646,465.450958 
	C1383.587646,444.551331 1383.587646,424.201996 1383.587646,403.520447 
	C1385.328125,403.520447 1386.642944,403.520447 1387.957764,403.520477 
	C1418.614746,403.521179 1449.271606,403.526642 1479.928589,403.511505 
	C1481.923218,403.510498 1483.933594,403.480499 1485.909546,403.240936 
	C1491.254272,402.592987 1493.176270,400.122345 1492.469116,394.819672 
	C1491.666138,388.796295 1486.837769,389.500183 1482.838623,389.489960 
	C1451.682129,389.410278 1420.525391,389.466248 1389.368652,389.480072 
	C1387.444702,389.480927 1385.520752,389.480194 1383.581787,389.480194 
	C1383.581787,368.501831 1383.581787,348.294830 1383.581787,327.842529 
	C1385.632812,327.842529 1387.285645,327.842499 1388.938477,327.842499 
	C1429.092407,327.842499 1469.246460,327.856262 1509.400391,327.811157 
	C1512.045166,327.808197 1514.722290,327.538574 1517.326416,327.070831 
	C1521.465454,326.327454 1522.312988,323.294220 1522.178467,319.594513 
	C1522.044678,315.914246 1520.109131,314.165405 1516.602417,313.869019 
	C1514.781494,313.715088 1512.958130,313.468933 1511.135864,313.468262 
	C1465.650269,313.451752 1420.164795,313.458801 1374.679199,313.481659 
	C1372.852783,313.482574 1371.022095,313.629883 1369.200928,313.793915 
	C1364.826660,314.187836 1362.689575,316.480103 1362.775879,321.007019 
	C1362.905762,327.835754 1362.814697,334.668701 1362.817383,342.499908 
M797.849121,402.356323 
	C819.252563,383.907501 820.439453,336.405823 781.552002,320.686798 
	C767.516296,315.013306 752.863525,313.575867 738.000793,313.497467 
	C709.338257,313.346283 680.674377,313.452179 652.011047,313.461609 
	C650.513123,313.462128 649.008057,313.481201 647.518433,313.620941 
	C640.859619,314.245605 639.466736,315.760315 639.457153,322.370819 
	C639.442993,332.202972 639.454773,342.035217 639.454956,351.867401 
	C639.455505,391.529449 639.447937,431.191467 639.463928,470.853516 
	C639.466614,477.551849 641.384277,479.458679 648.047852,479.566345 
	C649.379578,479.587891 650.715942,479.574738 652.044617,479.490295 
	C658.148926,479.102356 659.997925,477.188660 660.006226,471.147156 
	C660.027893,455.315704 660.009460,439.484192 660.031677,423.652740 
	C660.033447,422.399811 660.225952,421.147186 660.333557,419.849152 
	C688.240356,419.849152 715.740479,420.161926 743.229492,419.743286 
	C762.788269,419.445404 781.763123,416.355164 797.849121,402.356323 
z"/>
<path fill="#FFFFFF" opacity="1.000000" stroke="none" 
	d="
M264.562500,1.000001 
	C272.116669,2.006738 279.245789,2.932875 286.347931,4.033447 
	C328.622437,10.584468 366.566162,27.196453 400.414703,53.273136 
	C400.777985,53.553009 400.949615,54.081711 401.114502,54.342232 
	C243.194931,140.835571 141.308899,269.963104 101.215675,447.273651 
	C41.689892,400.911316 8.070297,340.638794 1.396979,265.151550 
	C1.000000,261.307098 1.000000,257.614197 1.336214,253.225830 
	C1.448286,249.353592 1.224143,246.176788 1.000000,243.000000 
	C1.000000,239.307098 1.000000,235.614182 1.391594,231.309753 
	C2.697069,223.293488 3.446790,215.864044 4.556321,208.488724 
	C7.601586,188.246155 13.752357,168.880600 21.670101,149.732269 
	C23.395113,146.044281 24.894846,142.593185 26.605312,139.008545 
	C26.928566,138.402359 27.041082,137.929733 27.437263,137.250763 
	C28.497347,135.368896 29.273764,133.693359 30.309418,131.865265 
	C30.748018,131.152985 30.927383,130.593216 31.376797,129.830322 
	C33.268406,126.713036 34.889969,123.798874 36.608368,120.781937 
	C36.705204,120.679169 36.783413,120.407806 36.992462,120.179489 
	C38.206268,118.188393 39.211029,116.425621 40.504318,114.458282 
	C42.237495,111.949104 43.682144,109.644493 45.420792,107.159233 
	C47.530479,104.339523 49.346161,101.700455 51.450676,98.933243 
	C52.287090,97.913681 52.834671,97.022270 53.666447,95.989296 
	C55.336246,93.972374 56.721848,92.097023 58.411415,90.076538 
	C59.087406,89.387360 59.459427,88.843315 60.097160,88.168457 
	C61.622501,86.466606 62.882126,84.895554 64.456566,83.174271 
	C65.793564,81.778542 66.815742,80.533043 68.097916,79.155197 
	C69.674355,77.591690 70.990822,76.160538 72.671158,74.744064 
	C73.688156,73.833786 74.341270,72.908829 75.303772,71.874283 
	C77.121399,70.193733 78.629646,68.622772 80.447113,66.949051 
	C82.168289,65.463531 83.580246,64.080772 85.293060,62.593616 
	C87.154320,60.995914 88.714729,59.502602 90.577888,57.910973 
	C94.577240,54.849079 98.273842,51.885506 102.305923,48.867714 
	C105.158684,46.905945 107.675972,44.998394 110.493057,43.046112 
	C111.922516,42.181427 113.052185,41.361473 114.503433,40.428078 
	C116.639359,39.142696 118.453697,37.970757 120.607880,36.708981 
	C122.297638,35.700699 123.647545,34.782249 125.321671,33.826645 
	C127.097206,32.863724 128.548523,31.937956 130.294098,31.013666 
	C131.417816,30.514688 132.247269,30.014229 133.421616,29.427607 
	C135.545746,28.309809 137.324982,27.278173 139.433685,26.244076 
	C140.508301,25.805624 141.253464,25.369635 142.358215,24.917061 
	C146.531693,23.119848 150.345551,21.339218 154.521912,19.468216 
	C156.922089,18.534698 158.959732,17.691553 161.371628,16.845146 
	C167.165710,14.900696 172.585556,12.959509 178.389206,11.043823 
	C181.181198,10.329775 183.589371,9.590223 186.392746,8.898384 
	C195.412613,7.232793 204.019119,5.420020 212.668167,3.840073 
	C218.748795,2.729306 224.887329,1.935398 231.000000,1.000001 
	C233.041672,1.000000 235.083328,1.000000 237.797287,1.357051 
	C244.979721,1.476068 251.489853,1.238034 258.000000,1.000000 
	C260.041656,1.000000 262.083344,1.000000 264.562500,1.000001 
M94.420303,104.070465 
	C122.553917,143.171524 150.687531,182.272598 178.446915,220.853531 
	C196.756363,199.586243 214.749023,178.686920 233.010239,157.475677 
	C233.105179,157.714737 233.009186,157.200577 232.732803,156.816071 
	C213.502380,130.063080 194.294174,103.293777 174.910095,76.652458 
	C173.898422,75.262001 171.386948,74.289078 169.561493,74.269623 
	C153.067825,74.093864 136.571442,74.176407 120.075844,74.179291 
	C104.685455,74.181976 89.295074,74.179863 73.020027,74.179863 
	C80.322243,84.384155 87.158974,93.937958 94.420303,104.070465 
z"/>
<path fill="#FFFFFF" opacity="1.000000" stroke="none" 
	d="
M232.460632,496.000000 
	C225.730301,495.031250 219.470825,493.989716 213.189117,493.106415 
	C185.773468,489.251160 159.795151,480.938934 135.211182,468.206787 
	C132.936874,467.028900 131.530457,466.309479 132.569534,463.055054 
	C153.040024,398.941437 182.336975,339.184326 220.600800,283.821320 
	C220.964783,283.294678 221.421753,282.832275 222.257309,281.837463 
	C229.197418,291.456451 235.958145,300.801117 242.692322,310.164917 
	C268.931061,346.649506 295.197083,383.114624 321.322662,419.680084 
	C323.282074,422.422485 325.476318,422.887939 328.447906,422.882172 
	C359.772461,422.821350 391.097137,422.844543 423.718140,422.844543 
	C401.763428,444.905396 377.408447,461.651581 349.993866,473.998688 
	C322.429840,486.413055 293.526428,493.488098 263.163971,495.601074 
	C259.969421,496.000000 256.938812,496.000000 253.221573,495.670532 
	C249.689957,495.560699 246.844971,495.780334 244.000000,496.000000 
	C240.307098,496.000000 236.614182,496.000000 232.460632,496.000000 
z"/>
<path fill="none" opacity="1.000000" stroke="none" 
	d="
M27.153599,137.457092 
	C27.041082,137.929733 26.928566,138.402359 26.194031,138.974518 
	C24.099726,139.645981 22.438028,139.959366 21.207285,140.861008 
	C19.923004,141.801865 18.020401,143.517944 18.223539,144.524780 
	C18.617361,146.476746 20.297628,148.169159 21.444820,149.969131 
	C13.752357,168.880600 7.601586,188.246155 4.556321,208.488724 
	C3.446790,215.864044 2.697069,223.293488 1.391594,230.849121 
	C1.000000,154.414017 1.000000,77.828033 1.000000,1.000000 
	C62.687351,1.000000 124.375015,1.000000 186.496460,1.351590 
	C186.619354,4.085677 186.308441,6.468173 185.997559,8.850670 
	C183.589371,9.590223 181.181198,10.329775 178.309067,10.662946 
	C176.055374,9.865265 174.237244,9.069515 172.483566,9.192521 
	C170.601028,9.324566 168.504471,11.236085 166.978577,10.778735 
	C160.657990,8.884288 160.992477,12.887937 160.997391,16.848408 
	C158.959732,17.691553 156.922089,18.534698 154.465851,19.106808 
	C151.051285,18.834253 148.045441,18.683203 145.062469,18.879408 
	C142.753281,19.031300 140.472687,19.617710 137.749298,20.084703 
	C139.733475,22.348867 140.866043,23.641256 141.998611,24.933643 
	C141.253464,25.369635 140.508301,25.805624 139.222504,25.937241 
	C135.692932,25.308125 132.752777,25.053785 133.076721,29.513767 
	C132.247269,30.014229 131.417816,30.514688 130.286865,30.640045 
	C128.210541,28.105087 127.258713,23.847788 123.574997,26.380751 
	C124.197075,29.653297 124.597260,31.758547 124.997444,33.863800 
	C123.647545,34.782249 122.297638,35.700699 120.529831,36.308804 
	C118.773605,34.964146 117.435272,33.929829 115.130630,32.148705 
	C114.706825,35.897602 114.444336,38.219559 114.181839,40.541519 
	C113.052185,41.361473 111.922516,42.181427 110.226631,42.895920 
	C106.321983,42.880650 102.983559,42.970833 99.645126,43.061016 
	C100.420235,45.014656 101.195343,46.968296 101.970451,48.921936 
	C98.273842,51.885506 94.577240,54.849079 90.167694,57.906078 
	C85.941467,57.641624 84.672935,59.415779 84.992210,62.698006 
	C83.580246,64.080772 82.168289,65.463531 80.062279,66.928024 
	C77.637054,66.657623 75.905876,66.305496 73.278427,65.771065 
	C73.962189,68.246689 74.478294,70.115280 74.994392,71.983871 
	C74.341270,72.908829 73.688156,73.833786 72.467369,74.367111 
	C69.806946,74.269592 67.714180,74.563698 65.621422,74.857796 
	C66.360260,76.334381 67.099098,77.810959 67.837929,79.287544 
	C66.815742,80.533043 65.793564,81.778542 64.219009,82.843170 
	C61.623646,82.453712 59.580654,82.245125 56.108002,81.890579 
	C57.886005,84.950821 58.858730,86.625046 59.831451,88.299263 
	C59.459427,88.843315 59.087406,89.387360 58.187206,89.770935 
	C52.822464,87.433563 51.539993,91.444893 48.970116,94.549805 
	C50.729889,95.180412 52.056068,95.655632 53.382248,96.130859 
	C52.834671,97.022270 52.287090,97.913681 51.033524,98.915581 
	C44.426773,99.301956 43.412224,100.923798 45.126789,107.339882 
	C43.682144,109.644493 42.237495,111.949104 40.336998,114.103485 
	C37.952259,114.060333 36.023365,114.167404 33.568451,114.303673 
	C35.025272,117.069687 35.904343,118.738747 36.783413,120.407806 
	C36.783413,120.407806 36.705204,120.679169 36.272850,120.571419 
	C33.849964,121.920021 31.800825,123.304535 29.892410,124.861534 
	C28.862307,125.701965 28.072866,126.837372 27.174850,127.839691 
	C28.485481,128.570953 29.796114,129.302200 31.106747,130.033463 
	C30.927383,130.593216 30.748018,131.152985 29.947891,131.825195 
	C27.038799,131.037598 25.487228,131.145584 26.231800,134.259354 
	C26.489519,135.337097 26.843557,136.391846 27.153599,137.457092 
M121.482956,28.587852 
	C121.482956,28.587852 121.416832,28.476978 121.482956,28.587852 
z"/>
<path fill="none" opacity="1.000000" stroke="none" 
	d="
M186.392731,8.898382 
	C186.308441,6.468173 186.619354,4.085677 186.965118,1.351590 
	C201.354233,1.000000 215.708450,1.000000 230.531342,1.000001 
	C224.887329,1.935398 218.748795,2.729306 212.668167,3.840073 
	C204.019119,5.420020 195.412613,7.232793 186.392731,8.898382 
z"/>
<path fill="#FFFFFF" opacity="1.000000" stroke="none" 
	d="
M257.531616,1.000000 
	C251.489853,1.238034 244.979721,1.476068 238.234787,1.357051 
	C244.354401,1.000000 250.708801,1.000000 257.531616,1.000000 
z"/>
<path fill="#FFFFFF" opacity="1.000000" stroke="none" 
	d="
M1.000000,243.454102 
	C1.224143,246.176788 1.448286,249.353592 1.336214,252.765198 
	C1.000000,249.969406 1.000000,246.938812 1.000000,243.454102 
z"/>
<path fill="#FFFFFF" opacity="1.000000" stroke="none" 
	d="
M244.449982,496.000000 
	C246.844971,495.780334 249.689957,495.560699 252.767456,495.670532 
	C250.299988,496.000000 247.599976,496.000000 244.449982,496.000000 
z"/>
<path fill="#FFFFFF" opacity="1.000000" stroke="none" 
	d="
M353.845581,140.834290 
	C379.214874,120.231354 405.598724,101.691650 433.298950,85.044106 
	C515.261047,171.659912 520.953552,326.472931 423.784607,422.426636 
	C374.149841,353.416687 324.566071,284.477631 274.735657,215.195663 
	C299.364075,188.653259 325.573364,163.912338 353.845581,140.834290 
z"/>
<path fill="#FFFFFF" opacity="1.000000" stroke="none" 
	d="
M838.158508,131.999908 
	C838.158508,97.334473 838.155396,63.169044 838.160400,29.003611 
	C838.161865,18.983141 841.909119,15.034357 851.922791,14.879633 
	C861.420166,14.732885 870.923523,14.706892 880.420349,14.865216 
	C890.845520,15.039017 894.818054,19.196100 894.820801,29.616789 
	C894.838318,97.280968 894.842773,164.945145 894.836487,232.609329 
	C894.835571,242.893799 891.692566,246.678772 881.504822,247.242798 
	C872.535583,247.739380 863.516846,247.265045 854.524475,247.443970 
	C847.828125,247.577209 843.337402,243.899414 839.159058,239.381119 
	C821.414185,220.193146 803.661316,201.012497 785.883118,181.855438 
	C756.775085,150.489777 727.643005,119.146477 698.540161,87.776001 
	C697.995178,87.188591 697.686829,86.381653 697.268127,85.677139 
	C696.846985,85.862228 696.425903,86.047318 696.004761,86.232399 
	C696.004761,87.954124 696.004822,89.675842 696.004761,91.397568 
	C696.003845,138.395874 696.005310,185.394165 696.000122,232.392471 
	C695.998962,243.147537 693.100159,246.795792 682.429810,247.266586 
	C671.799072,247.735611 661.105713,247.565140 650.475464,247.002045 
	C642.755188,246.593109 639.526978,242.654541 639.521973,234.983322 
	C639.476257,165.819351 639.465027,96.655334 639.496155,27.491354 
	C639.499817,19.426773 643.197876,15.335603 651.247131,15.047179 
	C661.066101,14.695343 670.906006,14.854249 680.736023,14.916707 
	C685.907166,14.949564 689.757019,17.635691 693.176636,21.340542 
	C714.180664,44.096832 735.259827,66.783768 756.305481,89.501640 
	C782.555054,117.836952 808.800171,146.176422 835.022644,174.536804 
	C835.778503,175.354355 836.256531,176.428818 836.864075,177.383484 
	C837.295593,177.143723 837.727051,176.903961 838.158508,176.664200 
	C838.158508,161.942780 838.158508,147.221344 838.158508,131.999908 
z"/>
<path fill="#FFFFFF" opacity="1.000000" stroke="none" 
	d="
M1027.000488,114.484642 
	C1049.819702,114.606239 1072.143799,114.499405 1094.455933,114.962120 
	C1103.344482,115.146439 1105.967896,118.649956 1106.001465,127.685440 
	C1106.004028,128.351898 1105.974121,129.019913 1106.008911,129.684601 
	C1106.837158,145.508652 1102.726440,147.657867 1087.644531,147.769073 
	C1055.656006,148.004929 1023.664612,147.843796 991.674438,147.845428 
	C990.052490,147.845520 988.430603,147.845444 986.635864,147.845444 
	C986.635864,169.990204 986.635864,191.611298 986.635864,213.991379 
	C988.396179,213.991379 990.136719,213.991333 991.877258,213.991379 
	C1036.863525,213.992874 1081.849731,213.987534 1126.836060,213.999664 
	C1142.191895,214.003799 1144.865845,216.700577 1144.843018,232.021500 
	C1144.824829,244.227768 1141.877808,247.316040 1129.574097,247.513885 
	C1120.579346,247.658539 1111.580322,247.517090 1102.583130,247.516647 
	C1050.765625,247.514099 998.948059,247.520844 947.130493,247.497238 
	C944.974548,247.496246 942.801575,247.349167 940.665833,247.056641 
	C933.055176,246.014160 930.013062,242.464783 930.009521,234.657120 
	C929.994141,200.834167 929.997559,167.011200 929.996277,133.188248 
	C929.994934,98.865387 929.995789,64.542526 929.996094,30.219666 
	C929.996216,18.302332 933.461487,14.820633 945.458069,14.815492 
	C976.281921,14.802283 1007.105835,14.814846 1037.929688,14.821184 
	C1068.753540,14.827521 1099.577393,14.810070 1130.401245,14.862784 
	C1141.900757,14.882450 1144.871948,17.914864 1144.822998,29.399618 
	C1144.808105,32.885120 1144.762817,36.401699 1144.302368,39.846668 
	C1143.638062,44.817074 1140.298462,47.376667 1135.526733,47.946091 
	C1132.063843,48.359344 1128.550781,48.502956 1125.059814,48.506954 
	C1080.240479,48.558289 1035.421265,48.562809 990.601990,48.579128 
	C989.469238,48.579540 988.336487,48.579185 986.867615,48.579185 
	C986.867615,70.519058 986.867615,92.086685 986.867615,114.484619 
	C1000.014099,114.484619 1013.257263,114.484619 1027.000488,114.484642 
z"/>
<path fill="#FFFFFF" opacity="1.000000" stroke="none" 
	d="
M1357.984131,47.984554 
	C1367.273438,38.408314 1376.391113,29.157761 1385.324463,19.732471 
	C1388.519043,16.361990 1392.043579,14.719987 1396.760010,14.778811 
	C1410.754639,14.953355 1424.755371,14.698236 1438.747559,14.952139 
	C1441.079224,14.994452 1444.634033,16.204407 1445.345337,17.855881 
	C1446.068237,19.534557 1444.610107,23.036179 1443.018921,24.697077 
	C1411.232910,57.875721 1379.287598,90.901566 1347.383667,123.967354 
	C1346.121460,125.275452 1344.951416,126.672394 1343.389648,128.417740 
	C1350.261963,135.571655 1356.998291,142.627533 1363.781738,149.637543 
	C1391.678833,178.465744 1419.590210,207.280197 1447.498291,236.097778 
	C1447.845581,236.456299 1448.406616,236.724915 1448.550293,237.144287 
	C1449.368164,239.532288 1451.110107,242.257767 1450.511597,244.264206 
	C1450.055786,245.792648 1446.620361,247.227203 1444.455688,247.312500 
	C1435.471069,247.666534 1426.465454,247.496597 1417.467651,247.511032 
	C1412.468750,247.519043 1407.468750,247.446442 1402.471313,247.529755 
	C1397.894653,247.606049 1394.290894,246.086670 1390.998657,242.674133 
	C1366.149414,216.915833 1341.136475,191.315475 1316.203979,165.637238 
	C1314.821045,164.212952 1313.698975,162.535446 1313.022217,162.881134 
	C1304.101074,171.051682 1294.828125,178.874374 1286.331665,187.464935 
	C1268.419556,205.575409 1250.870483,224.046112 1233.280396,242.472015 
	C1229.938110,245.973190 1226.176270,247.575943 1221.371704,247.534500 
	C1207.708984,247.416656 1194.040894,247.660736 1180.384521,247.342712 
	C1177.780518,247.282059 1173.850098,245.900665 1173.034546,244.034760 
	C1172.250122,242.239822 1174.052979,238.397202 1175.842163,236.531219 
	C1205.796875,205.291962 1235.874146,174.169479 1266.076294,143.169205 
	C1270.715698,138.407303 1276.110352,134.381378 1281.534546,129.687286 
	C1271.670166,119.457420 1263.157349,110.628731 1254.644165,101.800446 
	C1229.913330,76.154755 1205.141846,50.547905 1180.545532,24.773825 
	C1178.956421,23.108629 1177.538818,19.716631 1178.202393,17.930698 
	C1178.794922,16.335796 1182.363770,15.053351 1184.645996,15.009065 
	C1198.637207,14.737554 1212.637817,14.977981 1226.631470,14.779289 
	C1231.320068,14.712718 1234.834717,16.251940 1238.071167,19.611326 
	C1261.863647,44.307213 1285.767212,68.896004 1309.641113,93.513351 
	C1310.214600,94.104645 1310.849609,94.636223 1311.807129,95.519722 
	C1327.169800,79.706909 1342.454712,63.974091 1357.984131,47.984554 
z"/>
<path fill="#FFFFFF" opacity="1.000000" stroke="none" 
	d="
M1568.838379,178.999908 
	C1568.838379,135.378540 1568.838379,92.257179 1568.838379,48.506866 
	C1566.087158,48.506866 1563.657227,48.506779 1561.227417,48.506878 
	C1538.905396,48.507805 1516.583252,48.560764 1494.261353,48.492012 
	C1478.541138,48.443588 1476.540161,46.366859 1476.498657,30.604065 
	C1476.492920,28.446693 1476.524780,26.266706 1476.817749,24.135454 
	C1477.578125,18.602501 1480.269409,15.890226 1485.832764,15.123532 
	C1488.130127,14.806945 1490.485352,14.836573 1492.814331,14.836124 
	C1562.445801,14.822715 1632.077393,14.823265 1701.708862,14.834865 
	C1703.871460,14.835225 1706.058105,14.797513 1708.192139,15.084834 
	C1714.721924,15.964033 1717.877563,19.437006 1718.114624,26.043064 
	C1718.251953,29.868692 1718.236206,33.709141 1718.076416,37.534012 
	C1717.811035,43.883717 1715.070679,46.971680 1708.821899,47.897465 
	C1706.035767,48.310253 1703.187744,48.454151 1700.367065,48.461842 
	C1677.212402,48.524982 1654.057495,48.527374 1630.902710,48.547867 
	C1629.282593,48.549301 1627.662598,48.548054 1625.501099,48.548054 
	C1625.501099,50.823257 1625.501099,52.598671 1625.501099,54.374084 
	C1625.501221,113.011139 1625.504395,171.648193 1625.488159,230.285248 
	C1625.487549,232.444931 1625.395142,234.614807 1625.174072,236.762268 
	C1624.547852,242.841995 1621.589478,246.593185 1615.488770,246.826752 
	C1603.363525,247.290909 1591.193115,247.313995 1579.070557,246.814438 
	C1572.415405,246.540207 1568.985718,242.053833 1568.934570,234.970810 
	C1568.801147,216.481247 1568.857666,197.990311 1568.838379,178.999908 
z"/>
<path fill="#FFFFFF" opacity="1.000000" stroke="none" 
	d="
M1133.762939,445.143555 
	C1134.693481,447.871368 1135.494507,450.230591 1136.634888,453.588989 
	C1139.549805,446.982544 1142.173462,441.155731 1144.701172,435.287537 
	C1159.423950,401.108093 1174.192627,366.947998 1188.754272,332.699921 
	C1190.805542,327.875427 1193.644897,325.391602 1198.937866,325.969177 
	C1200.255371,326.112976 1201.624268,326.153290 1202.930786,325.968414 
	C1208.652588,325.158783 1211.720459,327.846313 1213.916382,333.002106 
	C1230.522705,371.990387 1247.315430,410.899353 1264.054810,449.830994 
	C1264.483154,450.827454 1264.967773,451.799713 1265.796509,453.577576 
	C1270.339478,440.424774 1274.621094,428.055786 1278.884399,415.680603 
	C1289.918823,383.650696 1301.000610,351.636902 1311.902466,319.561920 
	C1313.220215,315.684906 1315.310181,313.676880 1319.353027,313.637695 
	C1322.014893,313.611908 1324.679199,313.415375 1327.337158,313.485657 
	C1333.842285,313.657623 1335.089233,315.455475 1332.922607,321.509583 
	C1325.875732,341.200806 1318.798340,360.881012 1311.730957,380.564911 
	C1300.788452,411.042389 1289.834595,441.515778 1278.913696,472.000977 
	C1277.449585,476.087952 1275.863159,479.813477 1270.463257,479.547516 
	C1264.368286,479.247314 1258.282959,480.960754 1254.811768,472.693695 
	C1237.443481,431.329926 1219.494141,390.210083 1201.417480,348.234283 
	C1200.500977,349.965118 1199.782104,351.121124 1199.249634,352.357361 
	C1182.086670,392.198151 1164.942017,432.046753 1147.794678,471.894257 
	C1144.795166,478.864349 1134.511841,482.546448 1127.904053,478.628265 
	C1126.135864,477.579895 1124.808105,475.177765 1124.059204,473.113708 
	C1112.955688,442.511200 1101.978516,411.862762 1090.982300,381.221313 
	C1083.914062,361.525513 1076.847046,341.829254 1069.814087,322.120911 
	C1067.301880,315.080963 1068.400513,313.583984 1075.962158,313.462433 
	C1088.303223,313.264038 1088.232056,313.288544 1092.161133,324.691254 
	C1105.956299,364.729065 1119.805054,404.748505 1133.762939,445.143555 
z"/>
<path fill="#FFFFFF" opacity="1.000000" stroke="none" 
	d="
M1652.523193,415.439972 
	C1650.811646,411.210632 1648.094360,410.050385 1643.835083,410.091675 
	C1620.340088,410.319641 1596.841675,410.200684 1573.344482,410.200684 
	C1571.711670,410.200684 1570.078735,410.200714 1567.847534,410.200714 
	C1567.847534,412.695251 1567.847656,414.796783 1567.847534,416.898285 
	C1567.845825,434.896149 1567.856689,452.893982 1567.835449,470.891846 
	C1567.828003,477.201416 1565.897461,479.186462 1559.536255,479.513855 
	C1558.040283,479.590851 1556.534668,479.585510 1555.037842,479.518250 
	C1549.144165,479.253448 1547.153076,477.152679 1547.150757,471.123932 
	C1547.138794,439.461029 1547.144653,407.798157 1547.144653,376.135254 
	C1547.144653,358.137390 1547.131592,340.139496 1547.152832,322.141663 
	C1547.160156,315.882385 1548.660400,314.104645 1554.979858,313.693024 
	C1560.125610,313.357819 1565.303955,313.448975 1570.467407,313.466980 
	C1598.624756,313.565125 1626.784668,313.517975 1654.938599,313.892761 
	C1670.388428,314.098450 1685.431274,316.701080 1699.022583,324.731506 
	C1715.085449,334.222260 1721.564941,348.642792 1719.947021,366.836700 
	C1718.449097,383.682892 1709.058472,395.161774 1693.971558,401.837036 
	C1686.754639,405.030273 1678.951904,406.899872 1670.869507,409.547577 
	C1675.799316,417.448761 1680.846069,425.553619 1685.909180,433.648285 
	C1693.935425,446.480377 1702.013672,459.280334 1709.952637,472.166229 
	C1710.926025,473.746277 1712.192627,476.619965 1711.539429,477.399902 
	C1710.418823,478.737915 1707.935181,479.136841 1705.945068,479.509705 
	C1696.073975,481.359100 1690.258179,476.957550 1685.317017,468.323395 
	C1675.082397,450.439636 1663.668701,433.230499 1652.523193,415.439972 
M1591.500000,396.152039 
	C1612.808228,396.096619 1634.119385,396.226868 1655.423584,395.906769 
	C1665.941650,395.748779 1676.317017,394.137512 1685.740723,388.923401 
	C1704.833130,378.359467 1705.481934,347.033508 1686.883179,335.597565 
	C1678.268677,330.300812 1668.629028,328.261078 1658.814941,328.141846 
	C1628.855957,327.777832 1598.890503,327.936035 1568.927612,327.913544 
	C1568.660156,327.913361 1568.392456,328.221497 1568.201660,328.338593 
	C1568.201660,350.933441 1568.201660,373.468323 1568.201660,396.152008 
	C1575.873047,396.152008 1583.186523,396.152008 1591.500000,396.152039 
z"/>
<path fill="#FFFFFF" opacity="1.000000" stroke="none" 
	d="
M850.591675,345.601166 
	C865.816956,327.289215 885.815918,318.155823 908.221252,313.750366 
	C938.735840,307.750366 969.185791,308.039734 999.105103,317.150848 
	C1023.515564,324.584442 1043.324951,338.220978 1053.589111,362.579712 
	C1066.269653,392.672516 1063.213867,438.779449 1026.468384,463.195221 
	C1010.462585,473.830475 992.605835,479.237762 973.740051,481.500946 
	C947.215698,484.682770 920.864319,484.037598 895.127319,476.062561 
	C871.842590,468.847412 852.066711,456.404663 841.981079,433.335480 
	C828.710999,402.982452 830.722900,373.415497 850.591675,345.601166 
M982.277588,327.032654 
	C959.016479,322.021484 935.722168,321.773743 912.482666,326.977234 
	C877.496765,334.810791 857.911316,354.818756 854.520325,387.848999 
	C850.928284,422.837433 865.008362,450.697845 901.030823,462.757965 
	C931.877014,473.085052 963.322449,472.942108 994.128662,462.418579 
	C1020.010498,453.577179 1036.236938,435.560699 1039.437500,407.707825 
	C1042.205444,383.621735 1037.770020,361.526978 1018.562073,344.590088 
	C1008.355896,335.590668 996.110596,330.554108 982.277588,327.032654 
z"/>
<path fill="#FFFFFF" opacity="1.000000" stroke="none" 
	d="
M1362.817383,341.999878 
	C1362.814697,334.668701 1362.905762,327.835754 1362.775879,321.007019 
	C1362.689575,316.480103 1364.826660,314.187836 1369.200928,313.793915 
	C1371.022095,313.629883 1372.852783,313.482574 1374.679199,313.481659 
	C1420.164795,313.458801 1465.650269,313.451752 1511.135864,313.468262 
	C1512.958130,313.468933 1514.781494,313.715088 1516.602417,313.869019 
	C1520.109131,314.165405 1522.044678,315.914246 1522.178467,319.594513 
	C1522.312988,323.294220 1521.465454,326.327454 1517.326416,327.070831 
	C1514.722290,327.538574 1512.045166,327.808197 1509.400391,327.811157 
	C1469.246460,327.856262 1429.092407,327.842499 1388.938477,327.842499 
	C1387.285645,327.842499 1385.632812,327.842529 1383.581787,327.842529 
	C1383.581787,348.294830 1383.581787,368.501831 1383.581787,389.480194 
	C1385.520752,389.480194 1387.444702,389.480927 1389.368652,389.480072 
	C1420.525391,389.466248 1451.682129,389.410278 1482.838623,389.489960 
	C1486.837769,389.500183 1491.666138,388.796295 1492.469116,394.819672 
	C1493.176270,400.122345 1491.254272,402.592987 1485.909546,403.240936 
	C1483.933594,403.480499 1481.923218,403.510498 1479.928589,403.511505 
	C1449.271606,403.526642 1418.614746,403.521179 1387.957764,403.520477 
	C1386.642944,403.520447 1385.328125,403.520447 1383.587646,403.520447 
	C1383.587646,424.201996 1383.587646,444.551331 1383.587646,465.450958 
	C1385.658203,465.450958 1387.617188,465.450989 1389.576172,465.450989 
	C1429.896729,465.451355 1470.217407,465.442291 1510.537964,465.476532 
	C1512.854858,465.478516 1515.221069,465.599274 1517.477173,466.076843 
	C1521.244873,466.874359 1522.283325,469.671936 1522.203613,473.224060 
	C1522.123535,476.794678 1520.516846,478.852509 1516.916870,479.211914 
	C1515.431274,479.360199 1513.938599,479.528717 1512.449097,479.529144 
	C1466.130371,479.543091 1419.811768,479.540161 1373.493042,479.532166 
	C1364.137085,479.530548 1362.817139,478.208771 1362.817261,468.959778 
	C1362.817383,426.806488 1362.817383,384.653198 1362.817383,341.999878 
z"/>
<path fill="#FFFFFF" opacity="1.000000" stroke="none" 
	d="
M797.584778,402.590576 
	C781.763123,416.355164 762.788269,419.445404 743.229492,419.743286 
	C715.740479,420.161926 688.240356,419.849152 660.333557,419.849152 
	C660.225952,421.147186 660.033447,422.399811 660.031677,423.652740 
	C660.009460,439.484192 660.027893,455.315704 660.006226,471.147156 
	C659.997925,477.188660 658.148926,479.102356 652.044617,479.490295 
	C650.715942,479.574738 649.379578,479.587891 648.047852,479.566345 
	C641.384277,479.458679 639.466614,477.551849 639.463928,470.853516 
	C639.447937,431.191467 639.455505,391.529449 639.454956,351.867401 
	C639.454773,342.035217 639.442993,332.202972 639.457153,322.370819 
	C639.466736,315.760315 640.859619,314.245605 647.518433,313.620941 
	C649.008057,313.481201 650.513123,313.462128 652.011047,313.461609 
	C680.674377,313.452179 709.338257,313.346283 738.000793,313.497467 
	C752.863525,313.575867 767.516296,315.013306 781.552002,320.686798 
	C820.439453,336.405823 819.252563,383.907501 797.584778,402.590576 
M660.011963,377.500000 
	C660.011963,386.785950 660.011963,396.071899 660.011963,405.371429 
	C660.897217,405.575287 661.358276,405.774170 661.819397,405.774414 
	C689.807373,405.788483 717.797791,405.999878 745.782043,405.676727 
	C756.447754,405.553558 767.048767,403.863251 776.518250,398.320862 
	C789.472229,390.738953 795.377319,373.946350 791.510925,356.561462 
	C788.928772,344.950806 782.438110,336.273590 771.113831,332.739410 
	C762.668640,330.103790 753.665039,328.526886 744.825623,328.052277 
	C730.705444,327.294098 716.515015,327.841187 702.354309,327.839203 
	C688.400757,327.837250 674.447144,327.838776 660.635986,327.838776 
	C660.346985,328.442627 660.087708,328.731934 660.087036,329.021851 
	C660.048279,344.847870 660.031250,360.673950 660.011963,377.500000 
z"/>
<path fill="none" opacity="1.000000" stroke="none" 
	d="
M94.208008,103.781113 
	C87.158974,93.937958 80.322243,84.384155 73.020027,74.179863 
	C89.295074,74.179863 104.685455,74.181976 120.075844,74.179291 
	C136.571442,74.176407 153.067825,74.093864 169.561493,74.269623 
	C171.386948,74.289078 173.898422,75.262001 174.910095,76.652458 
	C194.294174,103.293777 213.502380,130.063080 232.732803,156.816071 
	C233.009186,157.200577 233.105179,157.714737 233.010239,157.475677 
	C214.749023,178.686920 196.756363,199.586243 178.446915,220.853531 
	C150.687531,182.272598 122.553917,143.171524 94.208008,103.781113 
z"/>
<path fill="none" opacity="1.000000" stroke="none" 
	d="
M161.371628,16.845146 
	C160.992477,12.887937 160.657990,8.884288 166.978577,10.778735 
	C168.504471,11.236085 170.601028,9.324566 172.483566,9.192521 
	C174.237244,9.069515 176.055374,9.865265 177.925262,10.637444 
	C172.585556,12.959509 167.165710,14.900696 161.371628,16.845146 
z"/>
<path fill="none" opacity="1.000000" stroke="none" 
	d="
M142.358215,24.917061 
	C140.866043,23.641256 139.733475,22.348867 137.749298,20.084703 
	C140.472687,19.617710 142.753281,19.031300 145.062469,18.879408 
	C148.045441,18.683203 151.051285,18.834253 154.103333,19.197180 
	C150.345551,21.339218 146.531693,23.119848 142.358215,24.917061 
z"/>
<path fill="none" opacity="1.000000" stroke="none" 
	d="
M21.670101,149.732269 
	C20.297628,148.169159 18.617361,146.476746 18.223539,144.524780 
	C18.020401,143.517944 19.923004,141.801865 21.207285,140.861008 
	C22.438028,139.959366 24.099726,139.645981 25.983297,139.108063 
	C24.894846,142.593185 23.395113,146.044281 21.670101,149.732269 
z"/>
<path fill="none" opacity="1.000000" stroke="none" 
	d="
M102.305923,48.867714 
	C101.195343,46.968296 100.420235,45.014656 99.645126,43.061016 
	C102.983559,42.970833 106.321983,42.880650 109.926834,42.940651 
	C107.675972,44.998394 105.158684,46.905945 102.305923,48.867714 
z"/>
<path fill="none" opacity="1.000000" stroke="none" 
	d="
M31.376795,129.830322 
	C29.796114,129.302200 28.485481,128.570953 27.174850,127.839691 
	C28.072866,126.837372 28.862307,125.701965 29.892410,124.861534 
	C31.800825,123.304535 33.849964,121.920021 36.176018,120.674194 
	C34.889969,123.798874 33.268406,126.713036 31.376795,129.830322 
z"/>
<path fill="none" opacity="1.000000" stroke="none" 
	d="
M53.666447,95.989296 
	C52.056068,95.655632 50.729889,95.180412 48.970116,94.549805 
	C51.539993,91.444893 52.822464,87.433563 57.883240,89.916061 
	C56.721848,92.097023 55.336246,93.972374 53.666447,95.989296 
z"/>
<path fill="none" opacity="1.000000" stroke="none" 
	d="
M125.321671,33.826645 
	C124.597260,31.758547 124.197075,29.653297 123.574997,26.380751 
	C127.258713,23.847788 128.210541,28.105087 129.992615,30.638565 
	C128.548523,31.937956 127.097206,32.863724 125.321671,33.826645 
z"/>
<path fill="none" opacity="1.000000" stroke="none" 
	d="
M68.097916,79.155197 
	C67.099098,77.810959 66.360260,76.334381 65.621422,74.857796 
	C67.714180,74.563698 69.806946,74.269592 72.103493,74.352432 
	C70.990822,76.160538 69.674355,77.591690 68.097916,79.155197 
z"/>
<path fill="none" opacity="1.000000" stroke="none" 
	d="
M45.420792,107.159233 
	C43.412224,100.923798 44.426773,99.301956 50.744690,99.043732 
	C49.346161,101.700455 47.530479,104.339523 45.420792,107.159233 
z"/>
<path fill="none" opacity="1.000000" stroke="none" 
	d="
M60.097160,88.168457 
	C58.858730,86.625046 57.886005,84.950821 56.108002,81.890579 
	C59.580654,82.245125 61.623646,82.453712 63.904198,82.993401 
	C62.882126,84.895554 61.622501,86.466606 60.097160,88.168457 
z"/>
<path fill="none" opacity="1.000000" stroke="none" 
	d="
M114.503433,40.428078 
	C114.444336,38.219559 114.706825,35.897602 115.130630,32.148705 
	C117.435272,33.929829 118.773605,34.964146 120.189987,36.398636 
	C118.453697,37.970757 116.639359,39.142696 114.503433,40.428078 
z"/>
<path fill="none" opacity="1.000000" stroke="none" 
	d="
M36.992462,120.179489 
	C35.904343,118.738747 35.025272,117.069687 33.568451,114.303673 
	C36.023365,114.167404 37.952259,114.060333 40.048470,114.308052 
	C39.211029,116.425621 38.206268,118.188393 36.992462,120.179489 
z"/>
<path fill="none" opacity="1.000000" stroke="none" 
	d="
M75.303772,71.874283 
	C74.478294,70.115280 73.962189,68.246689 73.278427,65.771065 
	C75.905876,66.305496 77.637054,66.657623 79.753067,67.030777 
	C78.629646,68.622772 77.121399,70.193733 75.303772,71.874283 
z"/>
<path fill="none" opacity="1.000000" stroke="none" 
	d="
M27.437263,137.250763 
	C26.843557,136.391846 26.489519,135.337097 26.231800,134.259354 
	C25.487228,131.145584 27.038799,131.037598 29.688656,131.977722 
	C29.273764,133.693359 28.497347,135.368896 27.437263,137.250763 
z"/>
<path fill="none" opacity="1.000000" stroke="none" 
	d="
M133.421616,29.427605 
	C132.752777,25.053785 135.692932,25.308125 138.893036,25.939705 
	C137.324982,27.278173 135.545746,28.309809 133.421616,29.427605 
z"/>
<path fill="none" opacity="1.000000" stroke="none" 
	d="
M85.293060,62.593616 
	C84.672935,59.415779 85.941467,57.641624 89.864960,58.004395 
	C88.714729,59.502602 87.154320,60.995914 85.293060,62.593616 
z"/>
<path fill="none" opacity="1.000000" stroke="none" 
	d="
M121.449890,28.532415 
	C121.416832,28.476978 121.482956,28.587852 121.449890,28.532415 
z"/>
<path fill="none" opacity="1.000000" stroke="none" 
	d="
M1591.000000,396.152039 
	C1583.186523,396.152008 1575.873047,396.152008 1568.201660,396.152008 
	C1568.201660,373.468323 1568.201660,350.933441 1568.201660,328.338593 
	C1568.392456,328.221497 1568.660156,327.913361 1568.927612,327.913544 
	C1598.890503,327.936035 1628.855957,327.777832 1658.814941,328.141846 
	C1668.629028,328.261078 1678.268677,330.300812 1686.883179,335.597565 
	C1705.481934,347.033508 1704.833130,378.359467 1685.740723,388.923401 
	C1676.317017,394.137512 1665.941650,395.748779 1655.423584,395.906769 
	C1634.119385,396.226868 1612.808228,396.096619 1591.000000,396.152039 
z"/>
<path fill="none" opacity="1.000000" stroke="none" 
	d="
M982.687744,327.102295 
	C996.110596,330.554108 1008.355896,335.590668 1018.562073,344.590088 
	C1037.770020,361.526978 1042.205444,383.621735 1039.437500,407.707825 
	C1036.236938,435.560699 1020.010498,453.577179 994.128662,462.418579 
	C963.322449,472.942108 931.877014,473.085052 901.030823,462.757965 
	C865.008362,450.697845 850.928284,422.837433 854.520325,387.848999 
	C857.911316,354.818756 877.496765,334.810791 912.482666,326.977234 
	C935.722168,321.773743 959.016479,322.021484 982.687744,327.102295 
z"/>
<path fill="none" opacity="1.000000" stroke="none" 
	d="
M660.011963,377.000000 
	C660.031250,360.673950 660.048279,344.847870 660.087036,329.021851 
	C660.087708,328.731934 660.346985,328.442627 660.635986,327.838776 
	C674.447144,327.838776 688.400757,327.837250 702.354309,327.839203 
	C716.515015,327.841187 730.705444,327.294098 744.825623,328.052277 
	C753.665039,328.526886 762.668640,330.103790 771.113831,332.739410 
	C782.438110,336.273590 788.928772,344.950806 791.510925,356.561462 
	C795.377319,373.946350 789.472229,390.738953 776.518250,398.320862 
	C767.048767,403.863251 756.447754,405.553558 745.782043,405.676727 
	C717.797791,405.999878 689.807373,405.788483 661.819397,405.774414 
	C661.358276,405.774170 660.897217,405.575287 660.011963,405.371429 
	C660.011963,396.071899 660.011963,386.785950 660.011963,377.000000 
z"/>
</svg>